<?xml version="1.0" ?><svg data-name="Layer 1" id="Layer_1" viewBox="0 0 256 256" xmlns="http://www.w3.org/2000/svg"><defs><style>.cls-1,.cls-2,.cls-3{fill:none;stroke:#000;}.cls-1,.cls-2{stroke-miterlimit:10;stroke-width:6px;}.cls-2,.cls-3{stroke-linecap:round;}.cls-3{stroke-linejoin:round;stroke-width:5px;}</style></defs><title/><path class="cls-1" d="M193.06,129.08a64.62,64.62,0,0,1-40.18,59.18,17.27,17.27,0,0,0-10.64,16h0a6.68,6.68,0,0,1-6.68,6.68H121.36a6.68,6.68,0,0,1-6.68-6.68h0a17.25,17.25,0,0,0-10.62-16,64.61,64.61,0,1,1,89-59.19Z"/><rect class="cls-1" height="11.71" rx="4.47" ry="4.47" width="25.08" x="115.92" y="219.79"/><line class="cls-2" x1="128.46" x2="128.46" y1="49.65" y2="24.5"/><line class="cls-2" x1="181.58" x2="199.36" y1="71.65" y2="53.87"/><line class="cls-2" x1="55.72" x2="73.5" y1="199.35" y2="181.56"/><line class="cls-2" x1="205.42" x2="230.57" y1="124.77" y2="124.77"/><line class="cls-2" x1="25.43" x2="50.58" y1="124.77" y2="124.77"/><line class="cls-2" x1="183.42" x2="201.2" y1="179.73" y2="197.51"/><line class="cls-2" x1="57.56" x2="75.34" y1="53.87" y2="71.65"/><polygon class="cls-3" points="156.6 129.23 133.29 129.23 133.65 84.28 100.93 135.25 124.24 135.25 123.88 179.73 156.6 129.23"/></svg>