<svg height="50" viewBox="0 0 50 50" width="50" xmlns="http://www.w3.org/2000/svg"><path fill="none" d="M0 0h50v50H0z"/><circle cx="25" cy="24" fill="none" r="12" stroke="#000" stroke-linecap="round" stroke-miterlimit="10" stroke-width="2"/><circle cx="25" cy="24" fill="none" r="8" stroke="#000" stroke-linecap="round" stroke-miterlimit="10" stroke-width="2"/><path d="M47 10H37c-1.47 0-2.484-4-4-4H17c-1.516 0-2.53 4-4 4H3c-1.104 0-2 .896-2 2v27c0 1.104.896 2 2 2h44c1.104 0 2-.896 2-2V12c0-1.104-.896-2-2-2z" fill="none" stroke="#000" stroke-linecap="round" stroke-miterlimit="10" stroke-width="2"/><path d="M9 14H8c-1.104 0-2 .896-2 2s.896 2 2 2h1c1.104 0 2-.896 2-2s-.896-2-2-2z"/></svg>
